<?xml version="1.0"?>
<svg xmlns="http://www.w3.org/2000/svg" xmlns:xlink="http://www.w3.org/1999/xlink" version="1.1" id="Capa_1" x="0px" y="0px" viewBox="0 0 477.987 477.987" style="enable-background:new 0 0 477.987 477.987;" xml:space="preserve" width="512px" height="512px"><g><g>
	<g>
		<path d="M460.92,153.66c-9.426,0-17.067,7.641-17.067,17.067v51.2h-51.2v-51.2c0-9.426-7.641-17.067-17.067-17.067    c-9.426,0-17.067,7.641-17.067,17.067v51.2H203.384c-9.426-55.763-62.271-93.327-118.034-83.901    C29.587,147.451-7.977,200.297,1.448,256.06s62.271,93.327,118.034,83.901c42.972-7.264,76.638-40.93,83.901-83.901H460.92    c9.426,0,17.067-7.641,17.067-17.067v-68.267C477.987,161.301,470.346,153.66,460.92,153.66z M102.52,307.26    c-37.703,0-68.267-30.564-68.267-68.267s30.564-68.267,68.267-68.267s68.267,30.564,68.267,68.267S140.223,307.26,102.52,307.26z" data-original="#000000" class="active-path" data-old_color="#000000" fill="#A5D0F8"/>
	</g>
</g></g> </svg>
